<svg version="1.1" viewBox="0.0 0.0 800.0 600.0" fill="none" stroke="none" stroke-linecap="square" stroke-miterlimit="10" xmlns:xlink="http://www.w3.org/1999/xlink" xmlns="http://www.w3.org/2000/svg"><clipPath id="p.0"><path d="m0 0l800.0 0l0 600.0l-800.0 0l0 -600.0z" clip-rule="nonzero"/></clipPath><g clip-path="url(#p.0)"><path fill="#000000" fill-opacity="0.0" d="m0 0l800.0 0l0 600.0l-800.0 0z" fill-rule="evenodd"/><path fill="#000000" fill-opacity="0.0" d="m430.00262 464.30185c-4.658783 -25.055145 -41.94751 -226.06038 26.220459 -295.3937c11.068268 -11.650925 33.79004 -34.375336 62.921265 -31.461945c19.811035 1.1653442 37.288696 13.401566 45.446228 31.461945c13.40155 31.46193 -19.80841 65.837265 -25.05249 72.24672c-39.619446 41.367447 -203.336 33.209976 -213.24149 32.0446" fill-rule="evenodd"/><path stroke="#5d9843" stroke-width="43.69816272965879" stroke-miterlimit="221.9804" stroke-linecap="round" d="m430.00262 464.30185c-4.658783 -25.055145 -41.94751 -226.06038 26.220459 -295.3937c11.068268 -11.650925 33.79004 -34.375336 62.921265 -31.461945c19.811035 1.1653442 37.288696 13.401566 45.446228 31.461945c13.40155 31.46193 -19.80841 65.837265 -25.05249 72.24672c-39.619446 41.367447 -203.336 33.209976 -213.24149 32.0446" fill-rule="evenodd"/><path fill="#000000" fill-opacity="0.0" d="m314.06036 464.30185c4.6614075 -25.055145 41.950134 -226.06038 -26.217834 -295.3937c-11.068237 -11.650925 -33.792664 -34.375336 -62.92389 -31.461945c-19.80841 1.1653442 -37.286087 13.401566 -46.026245 31.461945c-12.818909 31.46193 19.808395 65.837265 25.635162 72.24672c39.61943 41.367447 212.65878 33.209976 222.5643 32.0446" fill-rule="evenodd"/><path stroke="#5d9843" stroke-width="43.69816272965879" stroke-miterlimit="221.9804" stroke-linecap="round" d="m314.06036 464.30185c4.6614075 -25.055145 41.950134 -226.06038 -26.217834 -295.3937c-11.068237 -11.650925 -33.792664 -34.375336 -62.92389 -31.461945c-19.80841 1.1653442 -37.286087 13.401566 -46.026245 31.461945c-12.818909 31.46193 19.808395 65.837265 25.635162 72.24672c39.61943 41.367447 212.65878 33.209976 222.5643 32.0446" fill-rule="evenodd"/></g></svg>